PathFileType	4	(X/Y/Z)	..\data\sprint.trc
DataRate	CameraRate	NumFrames	NumMarkers	Units	OrigDataRate	OrigDataStartFrame	OrigNumFrames
250.000000	250.000000	4	51	mm	250.000000	243	324
Frame#	Time	C7			RSH			LSH			MAN			T7			LARM			LELB			LFOREARM			LWR			RARM			RELB			RFOREARM			RWR			RASI			LASI			SACR			P1			P2			P3			LTHLP			LTHLD			LTHAP			LTHAD			LLEPI			LPAT			LTIAP			LTIAD			LTILAT			LLMAL			LHEEL			LMFS			LMFL			LP1MT			LTOE			LP5MT			RTHLP			RTHLD			RTHAP			RTHAD			RLEPI			RPAT			RTIAP			RTIAD			RTILAT			RLMAL			RHEEL			RMFS			RMFL			RP1MT			RTOE			RP5MT			
		X1	Y1	Z1	X2	Y2	Z2	X3	Y3	Z3	X4	Y4	Z4	X5	Y5	Z5	X6	Y6	Z6	X7	Y7	Z7	X8	Y8	Z8	X9	Y9	Z9	X10	Y10	Z10	X11	Y11	Z11	X12	Y12	Z12	X13	Y13	Z13	X14	Y14	Z14	X15	Y15	Z15	X16	Y16	Z16	X17	Y17	Z17	X18	Y18	Z18	X19	Y19	Z19	X20	Y20	Z20	X21	Y21	Z21	X22	Y22	Z22	X23	Y23	Z23	X24	Y24	Z24	X25	Y25	Z25	X26	Y26	Z26	X27	Y27	Z27	X28	Y28	Z28	X29	Y29	Z29	X30	Y30	Z30	X31	Y31	Z31	X32	Y32	Z32	X33	Y33	Z33	X34	Y34	Z34	X35	Y35	Z35	X36	Y36	Z36	X37	Y37	Z37	X38	Y38	Z38	X39	Y39	Z39	X40	Y40	Z40	X41	Y41	Z41	X42	Y42	Z42	X43	Y43	Z43	X44	Y44	Z44	X45	Y45	Z45	X46	Y46	Z46	X47	Y47	Z47	X48	Y48	Z48	X49	Y49	Z49	X50	Y50	Z50	X51	Y51	Z51	

244	0.972	3232.519775390627	1456.769165039063	242.5677490234376	3301.791992187502	1460.88818359375	386.0439453125002	3274.253906250002	1445.450317382813	67.78047943115237	3367.417236328127	1355.375122070313	213.4149017333986	3160.989501953127	1266.800903320313	273.8238830566407	3112.745117187502	1391.549926757813	-3.171507120132448	2971.549804687501	1379.5068359375	-18.18684959411622	2894.336669921876	1251.727172851563	-56.60330963134768	2804.008544921876	1155.885375976563	-76.14838409423831	3404.156005859377	1312.107666015625	484.9656372070315	3480.808593750002	1205.16552734375	533.2574462890627	3547.646240234377	1305.4130859375	455.2117309570315	3604.717529296877	1392.071166992188	387.5118713378909	3319.661621093752	952.3009643554692	361.4015502929689	3312.747802734377	969.5534667968755	148.5086669921876	3146.591796875002	1036.670166015625	261.6399841308595	3127.298583984377	1007.949645996094	210.4113159179689	3129.891601562502	1016.950134277344	314.6225585937501	3087.797851562502	965.9435424804692	264.5046997070314	3393.771972656252	771.3948364257817	67.2258224487305	3495.184570312502	721.2854614257815	89.63842773437503	3460.186279296877	865.851928710938	162.4296264648438	3555.376464843752	807.154174804688	162.7123718261719	3573.555419921877	651.4613037109377	121.8478240966797	3653.762451171877	708.4891357421877	177.7912597656251	3626.178222656252	490.3484802246096	197.5534057617189	3623.823242187502	350.1715393066407	208.0556182861329	3586.843505859377	412.5906372070315	129.7177276611329	3603.088134765627	191.8426971435547	169.8311157226563	3542.213378906252	155.1137695312501	222.4824218750001	3706.491455078127	203.9895477294923	217.1740264892579	3681.480712890627	160.6231384277344	161.7650909423829	3778.790527343752	165.5587921142579	255.7765045166017	3793.832519531252	186.171859741211	211.8863983154298	3754.520263671877	125.0440979003907	140.5999450683594	3083.735839843752	750.3707275390627	442.3050537109377	3015.345947265626	662.0213012695315	421.2740478515627	3164.844482421877	658.2954711914065	364.9630126953126	3089.993408203127	589.2542114257815	348.0895080566407	2901.459960937501	571.4633789062502	383.5264587402345	2949.059082031251	491.847595214844	332.6699523925782	2692.965576171876	495.0887756347659	303.4821166992189	2566.572753906251	481.142761230469	290.1430053710939	2672.110595703126	550.9166259765627	373.3262634277345	2441.513427734376	496.8869934082034	343.7426147460939	2426.491699218751	559.233337402344	284.6713867187501	2418.359130859376	387.7810363769534	304.7908020019532	2382.397705078126	435.4093933105471	351.2592773437501	2350.077392578126	333.6382446289064	258.5173339843751	2355.072021484376	316.4161376953126	305.479949951172	2313.423828125001	376.1661987304689	371.7012023925782	
245	0.976	3272.965576171877	1458.5654296875	241.7767181396486	3343.172851562502	1462.25	385.3515319824221	3313.992187500002	1445.483764648438	67.02810668945315	3406.946289062502	1355.86865234375	213.8701324462892	3199.250244140627	1268.442138671875	272.7294921875001	3151.891601562502	1388.628173828125	-3.20626997947693	3011.039550781251	1374.244140625	-17.91547775268555	2935.900878906251	1245.002807617188	-55.76366043090823	2848.037597656251	1147.449951171875	-74.88877868652347	3438.887939453127	1311.121948242188	486.3247680664065	3511.262451171877	1201.170654296875	535.6733398437502	3580.458496093752	1298.89306640625	456.8384399414065	3639.659179687502	1383.517578125	388.1599121093752	3357.707031250002	953.7135620117192	361.7192382812501	3349.213134765627	971.0263671875005	149.5479125976563	3182.922607421877	1037.39892578125	261.7718811035157	3163.855712890627	1008.344177246094	210.6956787109376	3167.312500000002	1016.67529296875	315.2794494628907	3126.469726562502	964.4326782226567	265.4073486328126	3425.208007812502	768.3613281250005	66.38800811767581	3524.484619140627	714.0584106445315	88.9454040527344	3496.384033203127	859.463989257813	160.7356262207032	3588.831298828127	798.2014770507817	161.4174194335938	3604.922363281252	641.7580566406252	120.8906021118165	3685.165039062502	700.0203857421877	176.2392272949219	3664.301757812502	481.5517578125002	197.9573669433595	3671.645507812502	341.772674560547	207.5156250000001	3633.907226562502	401.5375671386721	127.7201461791993	3661.253417968752	182.7054901123047	168.5524597167969	3601.063232421877	143.6185302734376	218.5636596679689	3762.556152343752	201.1773223876954	217.9889984130861	3742.091064453127	155.0499267578126	163.3833465576172	3834.160156250002	168.5862884521485	261.3228454589845	3850.095947265627	189.6507568359376	217.9698333740236	3818.467529296877	122.7325973510743	147.0314178466797	3124.899169921877	748.7482910156252	442.8569030761721	3056.854492187501	660.3511352539065	422.4070739746096	3206.161132812502	657.6367797851565	367.4107666015626	3132.278320312502	586.9952392578127	352.3246459960939	2944.101562500001	569.2497558593752	385.8946228027346	2987.892822265626	486.2209472656252	339.042694091797	2732.323974609376	504.251159667969	306.0232849121095	2604.858398437501	500.4968566894534	290.6208496093751	2714.929687500001	562.9199829101565	374.7268981933595	2480.591552734376	526.259948730469	343.302947998047	2473.704345703126	589.9429931640627	283.890838623047	2448.643798828126	419.5249023437502	303.6906738281251	2418.749267578126	471.2527160644534	348.9019470214845	2378.200927734376	372.1148986816407	255.8376464843751	2381.134277343751	355.5419006347657	303.6151733398439	2341.440429687501	417.9343872070315	367.1282958984376	
246	0.98	3313.219238281252	1460.908203125	241.0993652343751	3384.350097656252	1463.281005859375	384.7164001464846	3353.663574218752	1445.287719726563	66.37250518798831	3445.726318359377	1356.337280273438	214.4194488525392	3237.172363281252	1269.947631835938	271.5076293945314	3191.252197265627	1385.53369140625	-3.417663812637331	3050.849121093751	1368.327392578125	-18.32001113891602	2978.366699218751	1237.2041015625	-55.28789138793948	2893.334960937501	1137.307373046875	-73.68463897705081	3473.043945312502	1309.710205078125	487.9789733886721	3540.603515625002	1196.54736328125	538.1888427734377	3613.134521484377	1290.980590820313	458.7625427246096	3675.301025390627	1373.05224609375	389.2481079101565	3395.840820312502	955.1513061523442	361.8869934082032	3385.625244140627	972.4674682617192	150.3232421875001	3219.413574218752	1037.976684570313	262.8739624023439	3200.309082031252	1008.684875488282	211.5529937744142	3204.879394531252	1016.547058105469	316.684295654297	3164.509765625002	963.6655273437505	267.0501403808595	3456.318115234377	762.985534667969	66.24997711181643	3552.947021484377	704.7026367187502	88.57954406738284	3532.806640625002	852.8903198242192	157.8164672851563	3621.923828125002	788.7500000000005	159.5587921142579	3636.458496093752	631.6492309570315	119.2885665893555	3716.708740234377	690.872741699219	174.3204193115235	3700.901123046877	473.1437988281252	198.6131591796876	3716.632812500002	334.3186035156251	207.1348419189454	3677.981201171877	393.1583251953127	125.5593185424805	3715.908691406252	175.326400756836	167.2481231689454	3656.422851562502	134.1260528564454	215.3108520507814	3815.242431640627	198.5609588623048	218.8003997802736	3798.809570312502	150.3394622802735	164.7211456298829	3885.646484375002	171.1166534423829	266.0535278320314	3902.502197265627	191.8919525146485	223.0850219726564	3877.357666015627	120.8429260253907	152.7724609375001	3164.644775390627	748.3669433593752	443.7531738281252	3097.769531250002	658.9201660156252	424.7461547851565	3246.276855468752	658.0900878906252	368.9513549804689	3174.442626953127	585.7539062500002	355.5773010253907	2987.574951171876	566.635681152344	388.3388366699221	3028.651367187501	481.1035766601565	345.2744750976564	2773.712158203126	513.5933837890627	307.4966735839845	2646.299560546876	519.5642089843752	291.6567687988282	2759.957031250001	573.004333496094	376.7837219238282	2523.598876953126	555.3743896484377	343.6381225585939	2524.343994140626	619.6618652343752	283.3120117187501	2483.536621093751	452.2880554199221	302.9381103515626	2457.306884765626	506.8183593750002	347.339080810547	2411.101318359376	411.4388427734377	252.9072875976564	2411.017089843751	394.2105712890627	300.613494873047	2376.303466796876	460.658386230469	362.963348388672	
247	0.984	3353.543457031252	1461.43115234375	240.3609466552736	3424.966064453127	1463.812866210938	384.4128112792971	3393.437744140627	1444.810302734375	65.79643249511722	3484.537109375002	1356.1904296875	214.9650421142579	3274.866943359377	1271.447143554688	270.2335510253907	3230.661865234377	1382.317016601563	-3.785847425460817	3090.912597656252	1361.824096679688	-19.03156852722169	3021.792968750001	1228.585571289063	-55.06682586669925	2940.165527343751	1125.7861328125	-72.48368835449222	3506.630126953127	1307.92578125	489.6441650390627	3569.110107421877	1191.507202148438	540.7131347656252	3645.824951171877	1281.95068359375	460.918151855469	3711.763183593752	1360.619995117188	390.603698730469	3433.700439453127	956.6630249023442	361.9633789062501	3421.846435546877	973.8845825195317	150.6705017089844	3255.930664062502	1038.630126953125	264.675018310547	3236.510498046877	1009.076721191407	214.1880035400392	3242.475341796877	1016.492614746094	318.532196044922	3202.080566406252	963.435424804688	269.227752685547	3487.165527343752	755.6580200195315	67.19609069824222	3581.955810546877	694.5757446289065	88.31551361083987	3569.302978515627	845.935424804688	154.2227783203126	3655.255126953127	778.8254394531255	157.1121368408204	3667.936279296877	621.6927490234377	117.6463317871094	3748.218017578127	681.1304321289065	172.4464874267579	3738.122802734377	466.2884521484377	197.4727478027345	3759.663085937502	327.9241333007814	206.6543579101564	3718.373779296877	386.589782714844	123.7884063720704	3766.671630859377	169.0905761718751	166.4517211914063	3708.479003906252	125.9256668090821	213.847625732422	3864.470214843752	195.9170837402345	219.2559661865236	3851.267089843752	145.7463073730469	166.2342529296876	3933.895996093752	172.3545684814454	269.4009704589845	3951.819091796877	192.7623901367189	226.4291839599611	3931.260742187502	118.9254531860352	157.5074005126954	3203.728759765627	748.7220458984377	445.0053710937502	3138.686035156252	657.3951416015627	426.4750671386721	3286.302490234377	658.8875122070315	370.5651245117189	3216.634033203127	585.0156860351565	358.1880187988282	3032.020263671876	562.4116210937502	390.9873962402346	3072.336181640627	476.1567687988284	349.3756713867189	2816.966796875001	523.0847167968752	308.1561584472657	2690.513183593751	538.7520751953127	291.8421630859376	2806.655273437501	582.314636230469	378.6132202148439	2570.783203125001	583.0847778320315	342.5950317382814	2578.683837890626	648.1938476562502	283.5852661132814	2522.478027343751	484.4890441894534	301.1450805664064	2500.614990234376	541.5562744140627	346.0345153808595	2447.628417968751	450.8671875000002	250.4479980468751	2449.422851562501	433.8251953125002	297.9716796875001	2419.519287109376	503.0839843750002	360.1312561035157	
